<svg xmlns="http://www.w3.org/2000/svg" width="16.797" height="16.824" viewBox="0 0 16.797 16.824"><defs><style>.a{fill:#fff;}</style></defs><path class="a" d="M4.6,12.186c2.618,2.618,5.8,4.639,8.4,4.639a3.91,3.91,0,0,0,3.017-1.314,2.738,2.738,0,0,0,.779-1.776,1.42,1.42,0,0,0-.6-1.2l-2.781-1.975a2.029,2.029,0,0,0-1.105-.435,1.779,1.779,0,0,0-1.2.643l-.643.634a.488.488,0,0,1-.344.145.852.852,0,0,1-.362-.1A13.563,13.563,0,0,1,7.348,9.441a12.769,12.769,0,0,1-2-2.41.893.893,0,0,1-.1-.362.458.458,0,0,1,.136-.335l.643-.661a1.8,1.8,0,0,0,.643-1.2A2.005,2.005,0,0,0,6.215,3.37L4.267.625A1.484,1.484,0,0,0,3.017,0,2.553,2.553,0,0,0,1.268.788,4.054,4.054,0,0,0,0,3.823C0,6.424,1.984,9.577,4.6,12.186Z"/></svg>