<svg xmlns="http://www.w3.org/2000/svg" width="18.658" height="15.851" viewBox="0 0 18.658 15.851"><g transform="translate(-1395.691 -1045.873)"><path d="M1411.645,1061.724a2.375,2.375,0,0,0,2.7-2.669v-10.513a2.374,2.374,0,0,0-2.7-2.669h-7.482a3.325,3.325,0,0,0-2.583,1.007l-5.071,5.269a2.045,2.045,0,0,0,0,3.272l5.08,5.244a3.405,3.405,0,0,0,2.583,1.05Zm-.017-1.386h-7.482a1.863,1.863,0,0,1-1.515-.62l-5.045-5.209a1.019,1.019,0,0,1-.379-.723,1.054,1.054,0,0,1,.379-.732l5.037-5.226a1.851,1.851,0,0,1,1.515-.568h7.491a1.2,1.2,0,0,1,1.335,1.352v10.375A1.2,1.2,0,0,1,1411.628,1060.338Zm-7.964-2.9a.665.665,0,0,0,.491-.215l2.445-2.454,2.445,2.454a.688.688,0,0,0,1.188-.482.676.676,0,0,0-.207-.491l-2.445-2.445,2.454-2.463a.665.665,0,0,0,.207-.482.685.685,0,0,0-.689-.689.647.647,0,0,0-.482.207l-2.471,2.462-2.463-2.454a.612.612,0,0,0-.474-.2.678.678,0,0,0-.689.68.638.638,0,0,0,.207.482l2.445,2.454-2.445,2.454a.625.625,0,0,0-.207.482A.7.7,0,0,0,1403.664,1057.436Z"/></g></svg>