<svg width="291" height="38" viewBox="0 0 291 38" fill="none" xmlns="http://www.w3.org/2000/svg">
<path d="M0 22.3282C0 19.4222 0 16.5645 0 13.5132C2.79524 13.5132 5.54465 13.5132 8.24824 13.5132C11.7308 13.5132 12.8764 12.2539 12.8764 8.57287C12.8764 5.76368 12.8764 2.90606 12.8764 0C15.7175 0 18.3752 0 21.308 0C21.308 2.32485 21.308 4.64969 21.308 7.02298C21.308 7.84636 21.2621 8.71818 21.308 9.54156C21.3996 12.0601 22.6827 13.4163 25.0655 13.5132C27.4483 13.5616 29.877 13.5132 32.2598 13.5132C32.8555 13.5132 33.497 13.5132 34.1385 13.5132C34.1385 16.5645 34.1385 19.4222 34.1385 22.4735C31.435 22.4735 28.7772 22.4735 26.0736 22.4735C22.4077 22.4735 21.2163 23.7328 21.2163 27.5591C21.2163 30.3199 21.2163 33.1291 21.2163 36.0351C18.3752 36.0351 15.6717 36.0351 12.7848 36.0351C12.7848 33.1775 12.7848 30.3199 12.7848 27.5107C12.7848 23.7328 11.5934 22.4735 8.06495 22.4735C5.49883 22.4735 2.93271 22.4735 0.320765 22.4251C0.366589 22.522 0.274941 22.4251 0 22.3282Z" fill="#00B8D9"/>
<path d="M79.0839 5.22697V29.0557H74.3045V13.5568L67.9206 29.0557H64.3019L57.8839 13.5568V29.0557H53.1045V5.22697H58.5325L66.1113 22.9449L73.69 5.22697H79.0839Z" fill="#4D4C4C"/>
<path d="M101.903 10.1429L90.1931 38H85.1064L89.2031 28.5777L81.6243 10.1429H86.9841L91.8659 23.3545L96.816 10.1429H101.903Z" fill="#4D4C4C"/>
<path d="M129.99 12.6009C129.99 13.8754 129.683 15.0703 129.068 16.1854C128.477 17.3006 127.532 18.1996 126.235 18.8824C124.96 19.5652 123.344 19.9065 121.387 19.9065H117.393V29.0557H112.614V5.22697H121.387C123.231 5.22697 124.801 5.5456 126.098 6.18285C127.396 6.8201 128.363 7.69633 129 8.81152C129.66 9.92671 129.99 11.1898 129.99 12.6009ZM121.182 16.0489C122.502 16.0489 123.481 15.753 124.118 15.1613C124.756 14.5468 125.074 13.6933 125.074 12.6009C125.074 10.2795 123.777 9.11876 121.182 9.11876H117.393V16.0489H121.182Z" fill="#4D4C4C"/>
<path d="M144.035 9.86981C145.468 9.86981 146.743 10.1884 147.858 10.8257C148.973 11.4402 149.838 12.3619 150.453 13.5909C151.09 14.7971 151.409 16.2537 151.409 17.9606V29.0557H146.629V18.6093C146.629 17.1072 146.254 15.9579 145.503 15.1613C144.752 14.342 143.727 13.9323 142.43 13.9323C141.11 13.9323 140.063 14.342 139.289 15.1613C138.538 15.9579 138.163 17.1072 138.163 18.6093V29.0557H133.383V3.79315H138.163V12.4985C138.777 11.6792 139.597 11.0419 140.621 10.5867C141.645 10.1088 142.783 9.86981 144.035 9.86981Z" fill="#4D4C4C"/>
<path d="M154.725 19.531C154.725 17.6193 155.1 15.9237 155.851 14.4444C156.625 12.965 157.66 11.8271 158.958 11.0305C160.278 10.234 161.746 9.83567 163.362 9.83567C164.773 9.83567 166.002 10.1202 167.049 10.6891C168.118 11.2581 168.972 11.975 169.609 12.8399V10.1429H174.422V29.0557H169.609V26.2905C168.994 27.1781 168.141 27.9177 167.049 28.5095C165.979 29.0784 164.739 29.3629 163.327 29.3629C161.734 29.3629 160.278 28.9533 158.958 28.1339C157.66 27.3146 156.625 26.1653 155.851 24.6859C155.1 23.1838 154.725 21.4655 154.725 19.531ZM169.609 19.5993C169.609 18.4386 169.381 17.4486 168.926 16.6292C168.471 15.7872 167.856 15.1499 167.083 14.7175C166.309 14.2623 165.478 14.0347 164.591 14.0347C163.703 14.0347 162.884 14.2509 162.133 14.6833C161.382 15.1158 160.767 15.753 160.289 16.5951C159.834 17.4144 159.606 18.3931 159.606 19.531C159.606 20.669 159.834 21.6704 160.289 22.5352C160.767 23.3773 161.382 24.0259 162.133 24.4811C162.906 24.9363 163.726 25.1639 164.591 25.1639C165.478 25.1639 166.309 24.9477 167.083 24.5153C167.856 24.0601 168.471 23.4228 168.926 22.6035C169.381 21.7614 169.609 20.76 169.609 19.5993Z" fill="#4D4C4C"/>
<path d="M183.87 13.0788C184.484 12.0774 185.281 11.2923 186.259 10.7233C187.261 10.1543 188.399 9.86981 189.673 9.86981V14.8882H188.41C186.908 14.8882 185.77 15.2409 184.996 15.9465C184.245 16.652 183.87 17.881 183.87 19.6334V29.0557H179.09V10.1429H183.87V13.0788Z" fill="#4D4C4C"/>
<path d="M216.38 9.86981C218.701 9.86981 220.567 10.5867 221.979 12.0205C223.412 13.4316 224.129 15.4116 224.129 17.9606V29.0557H219.35V18.6093C219.35 17.1299 218.974 16.0034 218.223 15.2296C217.472 14.433 216.448 14.0347 215.151 14.0347C213.854 14.0347 212.818 14.433 212.044 15.2296C211.293 16.0034 210.918 17.1299 210.918 18.6093V29.0557H206.138V18.6093C206.138 17.1299 205.763 16.0034 205.012 15.2296C204.261 14.433 203.236 14.0347 201.939 14.0347C200.619 14.0347 199.572 14.433 198.798 15.2296C198.047 16.0034 197.672 17.1299 197.672 18.6093V29.0557H192.892V10.1429H197.672V12.4302C198.286 11.6336 199.072 11.0078 200.027 10.5526C201.006 10.0974 202.076 9.86981 203.236 9.86981C204.716 9.86981 206.036 10.1884 207.197 10.8257C208.357 11.4402 209.256 12.3278 209.893 13.4885C210.508 12.3961 211.396 11.5198 212.556 10.8598C213.74 10.1998 215.014 9.86981 216.38 9.86981Z" fill="#4D4C4C"/>
<path d="M227.436 19.531C227.436 17.6193 227.811 15.9237 228.562 14.4444C229.336 12.965 230.372 11.8271 231.669 11.0305C232.989 10.234 234.457 9.83567 236.073 9.83567C237.484 9.83567 238.713 10.1202 239.76 10.6891C240.829 11.2581 241.683 11.975 242.32 12.8399V10.1429H247.134V29.0557H242.32V26.2905C241.706 27.1781 240.852 27.9177 239.76 28.5095C238.69 29.0784 237.45 29.3629 236.039 29.3629C234.445 29.3629 232.989 28.9533 231.669 28.1339C230.372 27.3146 229.336 26.1653 228.562 24.6859C227.811 23.1838 227.436 21.4655 227.436 19.531ZM242.32 19.5993C242.32 18.4386 242.092 17.4486 241.637 16.6292C241.182 15.7872 240.568 15.1499 239.794 14.7175C239.02 14.2623 238.189 14.0347 237.302 14.0347C236.414 14.0347 235.595 14.2509 234.844 14.6833C234.093 15.1158 233.478 15.753 233 16.5951C232.545 17.4144 232.317 18.3931 232.317 19.531C232.317 20.669 232.545 21.6704 233 22.5352C233.478 23.3773 234.093 24.0259 234.844 24.4811C235.618 24.9363 236.437 25.1639 237.302 25.1639C238.189 25.1639 239.02 24.9477 239.794 24.5153C240.568 24.0601 241.182 23.4228 241.637 22.6035C242.092 21.7614 242.32 20.76 242.32 19.5993Z" fill="#4D4C4C"/>
<path d="M250.572 19.5993C250.572 17.642 250.971 15.9351 251.767 14.4785C252.564 12.9992 253.668 11.8612 255.079 11.0647C256.49 10.2453 258.106 9.83567 259.926 9.83567C262.271 9.83567 264.205 10.4274 265.73 11.6109C267.278 12.7716 268.313 14.4102 268.837 16.5268H263.682C263.409 15.7075 262.942 15.0703 262.282 14.6151C261.645 14.1371 260.848 13.8982 259.892 13.8982C258.527 13.8982 257.446 14.3989 256.649 15.4003C255.853 16.3789 255.454 17.7786 255.454 19.5993C255.454 21.3973 255.853 22.7969 256.649 23.7983C257.446 24.777 258.527 25.2663 259.892 25.2663C261.827 25.2663 263.09 24.4015 263.682 22.6718H268.837C268.313 24.7201 267.278 26.3474 265.73 27.5536C264.182 28.7598 262.248 29.3629 259.926 29.3629C258.106 29.3629 256.49 28.9646 255.079 28.1681C253.668 27.3488 252.564 26.2108 251.767 24.7542C250.971 23.2749 250.572 21.5566 250.572 19.5993Z" fill="#4D4C4C"/>
<path d="M290.431 10.1429L278.722 38H273.635L277.732 28.5777L270.153 10.1429H275.513L280.395 23.3545L285.345 10.1429H290.431Z" fill="#4D4C4C"/>
</svg>
